name Walk10.mot
datacolumns 19
datarows 10
range 3.48400000 3.49300000
endheader

                time	   L_ground_force_vx	   L_ground_force_vy	   L_ground_force_vz	   L_ground_force_px	   L_ground_force_py	   L_ground_force_pz	   R_ground_force_vx	   R_ground_force_vy	   R_ground_force_vz	   R_ground_force_px	   R_ground_force_py	   R_ground_force_pz	   L_ground_torque_x	   L_ground_torque_y	   L_ground_torque_z	   R_ground_torque_x	   R_ground_torque_y	   R_ground_torque_z	
          3.48400000	          0.00000000	          0.00000000	          0.00000000	          0.00000000	          0.00000000	          0.00000000	         33.69799343	        130.98260767	          2.19471923	          0.30996796	          0.00000000	          0.07382861	          0.00000000	          0.00000000	          0.00000000	          0.00000000	         -7.56127428	          0.00000000	
          3.48500000	          0.00000000	          0.00000000	          0.00000000	          0.00000000	          0.00000000	          0.00000000	         32.03677941	        124.16034485	          2.17092942	          0.31051983	          0.00000000	          0.07373064	          0.00000000	          0.00000000	          0.00000000	          0.00000000	         -7.23603374	          0.00000000	
          3.48600000	          0.00000000	          0.00000000	          0.00000000	          0.00000000	          0.00000000	          0.00000000	         30.35090973	        117.41251446	          2.15467074	          0.31090487	          0.00000000	          0.07329343	          0.00000000	          0.00000000	          0.00000000	          0.00000000	         -6.90947970	          0.00000000	
          3.48700000	          0.00000000	          0.00000000	          0.00000000	          0.00000000	          0.00000000	          0.00000000	         28.67364296	        110.73647939	          2.14625715	          0.31103175	          0.00000000	          0.07274828	          0.00000000	          0.00000000	          0.00000000	          0.00000000	         -6.59209108	          0.00000000	
          3.48800000	          0.00000000	          0.00000000	          0.00000000	          0.00000000	          0.00000000	          0.00000000	         27.02292654	        104.16157094	          2.14281182	          0.31090689	          0.00000000	          0.07243863	          0.00000000	          0.00000000	          0.00000000	          0.00000000	         -6.29235663	          0.00000000	
          3.48900000	          0.00000000	          0.00000000	          0.00000000	          0.00000000	          0.00000000	          0.00000000	         25.39854203	         97.71431344	          2.14137589	          0.31072653	          0.00000000	          0.07261141	          0.00000000	          0.00000000	          0.00000000	          0.00000000	         -6.01458259	          0.00000000	
          3.49000000	          0.00000000	          0.00000000	          0.00000000	          0.00000000	          0.00000000	          0.00000000	         23.79125241	         91.40789167	          2.13017904	          0.31083230	          0.00000000	          0.07322492	          0.00000000	          0.00000000	          0.00000000	          0.00000000	         -5.75150551	          0.00000000	
          3.49100000	          0.00000000	          0.00000000	          0.00000000	          0.00000000	          0.00000000	          0.00000000	         22.19541354	         85.23729733	          2.08947353	          0.31153573	          0.00000000	          0.07394401	          0.00000000	          0.00000000	          0.00000000	          0.00000000	         -5.48455188	          0.00000000	
          3.49200000	          0.00000000	          0.00000000	          0.00000000	          0.00000000	          0.00000000	          0.00000000	         20.61368335	         79.18610054	          2.00759077	          0.31296706	          0.00000000	          0.07436580	          0.00000000	          0.00000000	          0.00000000	          0.00000000	         -5.19734560	          0.00000000	
          3.49300000	          0.00000000	          0.00000000	          0.00000000	          0.00000000	          0.00000000	          0.00000000	         19.05303782	         73.24774701	          1.89326265	          0.31498021	          0.00000000	          0.07425326	          0.00000000	          0.00000000	          0.00000000	          0.00000000	         -4.88781475	          0.00000000	
